HIERARCHY
ROOT Pelvis
{
	OFFSET 0.000000 0.000000 0.000000
	CHANNELS 6 Xposition Yposition Zposition Zrotation Yrotation Xrotation 
	JOINT Left_hip
	{
		OFFSET 0.076090 -0.089427 -0.010735
		CHANNELS 3 Zrotation Yrotation Xrotation
		JOINT Left_knee
		{
			OFFSET 0.030200 -0.359518 -0.003501
			CHANNELS 3 Zrotation Yrotation Xrotation
			JOINT Left_ankle
			{
				OFFSET -0.011005 -0.371022 -0.045888
				CHANNELS 3 Zrotation Yrotation Xrotation
				JOINT Left_foot
				{
					OFFSET 0.023930 -0.052103 0.111084
					CHANNELS 3 Zrotation Yrotation Xrotation
					End Site
					{
						OFFSET 0.000000 0.000000 0.000000
					}
				}
			}
		}
	}
	JOINT Right_hip
	{
		OFFSET -0.073836 -0.088112 -0.007709
		CHANNELS 3 Zrotation Yrotation Xrotation
		JOINT Right_knee
		{
			OFFSET -0.035715 -0.367809 -0.006536
			CHANNELS 3 Zrotation Yrotation Xrotation
			JOINT Right_ankle
			{
				OFFSET 0.013718 -0.371958 -0.043815
				CHANNELS 3 Zrotation Yrotation Xrotation
				JOINT Right_foot
				{
					OFFSET -0.021936 -0.046387 0.114542
					CHANNELS 3 Zrotation Yrotation Xrotation
					End Site
					{
						OFFSET 0.000000 0.000000 0.000000
					}
				}
			}
		}
	}
	JOINT Spine1
	{
		OFFSET -0.001865 0.102064 -0.019455
		CHANNELS 3 Zrotation Yrotation Xrotation
		JOINT Spine2
		{
			OFFSET 0.003082 0.129260 -0.001938
			CHANNELS 3 Zrotation Yrotation Xrotation
			JOINT Spine3
			{
				OFFSET 0.001104 0.048093 0.026561
				CHANNELS 3 Zrotation Yrotation Xrotation
				JOINT Neck
				{
					OFFSET -0.002010 0.204222 -0.047183
					CHANNELS 3 Zrotation Yrotation Xrotation
					JOINT Head
					{
						OFFSET 0.005050 0.063649 0.048489
						CHANNELS 3 Zrotation Yrotation Xrotation
						End Site
						{
							OFFSET 0.000000 0.000000 0.000000
						}
					}
				}
				JOINT Left_collar
				{
					OFFSET 0.072979 0.114065 -0.031633
					CHANNELS 3 Zrotation Yrotation Xrotation
					JOINT Left_shoulder
					{
						OFFSET 0.083419 0.032092 -0.006530
						CHANNELS 3 Zrotation Yrotation Xrotation
						JOINT Left_elbow
						{
							OFFSET 0.239393 -0.012014 -0.025060
							CHANNELS 3 Zrotation Yrotation Xrotation
							JOINT Left_wrist
							{
								OFFSET 0.227297 0.008116 0.000384
								CHANNELS 3 Zrotation Yrotation Xrotation
								JOINT Left_palm
								{
									OFFSET 0.074607 -0.009248 -0.012277
									CHANNELS 3 Zrotation Yrotation Xrotation
									End Site
									{
										OFFSET 0.000000 0.000000 0.000000
									}
								}
							}
						}
					}
				}
				JOINT Right_collar
				{
					OFFSET -0.074980 0.111880 -0.037894
					CHANNELS 3 Zrotation Yrotation Xrotation
					JOINT Right_shoulder
					{
						OFFSET -0.087565 0.034353 -0.009323
						CHANNELS 3 Zrotation Yrotation Xrotation
						JOINT Right_elbow
						{
							OFFSET -0.236838 -0.013719 -0.019794
							CHANNELS 3 Zrotation Yrotation Xrotation
							JOINT Right_wrist
							{
								OFFSET -0.235053 0.006433 -0.003853
								CHANNELS 3 Zrotation Yrotation Xrotation
								JOINT Right_palm
								{
									OFFSET -0.075499 -0.006894 -0.009792
									CHANNELS 3 Zrotation Yrotation Xrotation
									End Site
									{
										OFFSET 0.000000 0.000000 0.000000
									}
								}
							}
						}
					}
				}
			}
		}
	}
}
MOTION
Frames: 5
Frame Time: 0.100000
0.000000 0.000000 0.000000 172.152478 35.951603 -15.471159 2.401518 -1.129904 4.212451 -1.899787 -10.737847 -4.278422 -3.906347 7.764289 -3.947921 7.727836 7.147912 -6.630761 -0.088937 2.757609 3.154421 2.524913 12.808919 -3.701014 11.865746 -6.258813 -5.585174 -15.577646 8.820578 0.802978 2.867603 0.536796 3.616870 1.701377 -1.008059 -0.449529 0.676386 -1.262463 2.870760 0.734479 3.672054 -12.194721 -4.276975 -6.040155 9.616354 -28.365365 2.885183 0.504797 -57.543961 -7.737219 10.459735 5.596717 -11.635203 5.257737 -4.669659 -3.080207 -1.291429 -10.360232 -4.789025 -10.083666 29.380806 2.491749 1.119529 51.063772 5.703789 16.077491 -6.373140 11.741143 -3.647975 4.127508 -0.376671 -0.312662 12.969425 6.991366 -7.217435 
-0.000028 0.000136 0.000858 172.126663 36.215670 -15.394554 2.409474 -1.272001 4.022141 -1.932026 -10.780221 -4.122814 -3.568291 7.520798 -4.069646 7.214310 7.433951 -6.316545 -0.099712 2.738304 3.233018 2.533207 12.739104 -3.928813 11.480105 -6.455010 -5.782105 -15.031540 9.158788 1.353111 2.879734 0.585725 3.471087 1.689908 -1.205223 -0.425922 0.620973 -1.260713 2.399767 0.724464 3.560825 -11.910343 -4.300226 -6.152895 9.870623 -28.325060 0.978672 0.471408 -56.429631 -9.073655 10.847571 5.434886 -13.316023 5.574073 -4.361483 -3.003585 -0.524614 -10.630126 -4.892497 -10.060113 29.024333 3.832046 1.288517 49.702184 6.555034 16.144583 -6.591832 13.944539 -3.380576 3.733931 -0.130434 0.114551 13.126571 7.187551 -7.286773 
-0.000260 -0.000036 0.002009 172.157398 36.300360 -15.276420 2.392734 -1.358840 3.991450 -1.897091 -10.690856 -4.164680 -3.393427 7.359811 -4.110518 6.885482 7.615832 -6.136617 -0.096032 2.740140 3.242448 2.498468 12.597622 -4.017319 11.348113 -6.356232 -5.863912 -14.709708 9.264512 1.668233 2.877914 0.645801 3.376682 1.628428 -1.258928 -0.466965 0.552570 -1.149898 2.079900 0.815897 3.544308 -11.762713 -4.200959 -6.183857 10.067554 -28.142950 -0.247850 0.253601 -56.094051 -10.437698 11.209560 5.885277 -15.623484 5.372221 -3.896512 -3.093613 -0.380269 -10.625936 -4.871161 -9.640907 28.589312 4.826897 1.211521 49.089312 7.463858 16.027574 -6.932061 14.940233 -3.610544 3.534389 0.008605 0.414750 13.022550 7.222286 -7.218018 
-0.000784 -0.000135 0.003011 172.099542 36.600837 -15.172276 2.381146 -1.503380 3.829345 -1.888545 -10.677992 -4.061389 -3.397972 7.230701 -4.205520 6.833791 7.675881 -6.075326 -0.103915 2.666847 3.269234 2.481393 12.427290 -4.158272 11.415258 -6.379123 -5.942697 -14.786194 9.398725 1.747821 2.899047 0.624261 3.424262 1.595242 -1.317372 -0.590742 0.545775 -1.154944 1.896507 0.773951 3.540564 -11.804661 -4.115106 -6.155262 10.225960 -28.089703 -0.876647 0.164971 -56.141890 -11.293849 11.323350 6.359991 -16.956208 4.460736 -3.310974 -3.220564 -1.021498 -10.528910 -4.830995 -9.144527 28.389669 5.221358 1.187947 48.840470 7.778652 15.892205 -7.164206 15.503665 -4.256947 3.380705 0.076272 0.042096 12.877635 7.197499 -7.050870 
-0.001835 -0.000590 0.005713 172.124316 36.536518 -15.014100 2.451510 -1.342606 4.070603 -1.875185 -10.765115 -4.446170 -3.571217 7.315407 -4.116981 7.055459 7.413190 -6.135753 -0.095023 2.656216 3.388632 2.470751 12.565453 -4.321170 11.556022 -6.364962 -5.922649 -15.075960 9.200866 1.460110 2.919040 0.650184 3.216217 1.613323 -1.387197 -0.658654 0.636956 -1.213317 2.050841 0.547324 3.623960 -11.647603 -3.987759 -5.929157 10.046187 -27.534758 -0.797027 0.111752 -56.390765 -10.910048 11.133632 5.929578 -14.480252 4.742627 -3.181104 -3.126347 -0.626224 -10.510507 -4.805482 -9.501191 27.884898 4.883001 1.313336 49.136362 7.196072 15.923659 -6.821388 14.759014 -3.665990 3.398912 0.167270 -0.149803 12.843554 7.150586 -7.157982 
